# xmcd
#
# Track frame offsets:
#	150
#	11824
#	19575
#	34100
#	47194
#	52942
#	66225
#	81434
#	102675
#	131775
#	147063
#	161396
#	173250
#	195825
#	211079
#	226603
#
# Disc length: 3180 seconds
#
# Revision: 1
# Processed by: cddbd v1.5.1PL0 Copyright (c) Steve Scherf et al.
# Submitted via: audiograbber 1.83.01
#
DISCID=c80c6a10
DTITLE=Hayseed Dixie - Live 06.06.2004
DYEAR=2004
DGENRE=Country
TTITLE0=Dirty Deeds
TTITLE1=banter
TTITLE2=You Shook Me All Night Long
TTITLE3=My Best Friend's Girl
TTITLE4=banter
TTITLE5=I Know You're Married
TTITLE6=Hell's Bells
TTITLE7=Have A Drink On Me
TTITLE8=Detroit Rock City
TTITLE9=Charlotte Breakdown
TTITLE10=Cat Scratch Fever
TTITLE11=Ellie Schaffer
TTITLE12=Big Bottom
TTITLE13=Fat Bottom Girls
TTITLE14=photo shoot
TTITLE15=Ace Of Spades
EXTD=
EXTT0=
EXTT1=
EXTT2=
EXTT3=
EXTT4=
EXTT5=
EXTT6=
EXTT7=
EXTT8=
EXTT9=
EXTT10=
EXTT11=
EXTT12=
EXTT13=
EXTT14=
EXTT15=
PLAYORDER=
